<?xml version="1.0" standalone="no"?>
<!DOCTYPE svg PUBLIC "-//W3C//DTD SVG 20010904//EN"
 "http://www.w3.org/TR/2001/REC-SVG-20010904/DTD/svg10.dtd">
<svg version="1.0" xmlns="http://www.w3.org/2000/svg"
 width="200.000000pt" height="200.000000pt" viewBox="0 0 200.000000 200.000000"
 preserveAspectRatio="xMidYMid meet">
<metadata>
Created by potrace 1.11, written by Peter Selinger 2001-2013
</metadata>
<g transform="translate(0.000000,200.000000) scale(0.100000,-0.100000)"
fill="#000000" stroke="none">
<path d="M869 1650 c0 -8 -2 -24 -4 -35 -3 -11 -7 -54 -11 -95 -5 -51 -12 -79
-23 -87 -9 -6 -19 -9 -22 -7 -4 2 -38 -6 -76 -18 -37 -12 -71 -22 -75 -22 -16
-2 -108 -78 -131 -108 -51 -68 -68 -164 -46 -258 9 -41 97 -226 120 -253 5 -7
23 -33 40 -59 82 -127 210 -228 304 -242 22 -3 40 -5 41 -6 1 0 -4 -61 -5 -71
-1 -3 -7 -6 -15 -6 -38 0 -110 -29 -145 -59 -44 -38 -60 -74 -55 -123 4 -29
-2 -40 -32 -70 -37 -37 -77 -109 -68 -123 3 -4 30 -8 60 -8 49 0 57 3 84 32
28 32 29 33 44 13 8 -11 16 -26 16 -32 0 -10 48 -13 204 -13 l204 0 23 38 c12
20 24 39 25 41 7 9 56 -32 66 -55 10 -22 17 -24 75 -24 57 0 63 2 63 20 0 50
-90 170 -127 170 -11 0 -13 7 -9 25 4 14 2 43 -4 64 -18 66 -97 111 -209 116
-43 3 -55 7 -53 18 1 9 -2 33 -7 56 -8 39 -8 41 29 65 55 37 110 92 169 169
183 243 204 509 51 644 -34 30 -119 70 -166 79 -22 3 -48 8 -59 11 -19 4 -128
12 -170 13 -16 0 -25 15 -45 78 -26 80 -59 148 -61 122z"/>
</g>
</svg>
